<svg width="44" height="44" viewBox="0 0 44 44" fill="none" xmlns="http://www.w3.org/2000/svg">
<circle cx="21.7228" cy="21.905" r="21.5592" fill="#EA504C"/>
<path d="M8.88965 30.8889V23.1892C8.88965 22.6117 9.00728 22.0877 9.24255 21.6171C9.47782 21.1466 9.78795 20.7295 10.1729 20.3659V16.7727C10.1729 15.7033 10.5472 14.7943 11.2958 14.0457C12.0444 13.2971 12.9534 12.9229 14.0228 12.9229H19.156C19.6479 12.9229 20.1077 13.014 20.5355 13.1962C20.9633 13.3784 21.3589 13.6295 21.7225 13.9495C22.0861 13.6287 22.4818 13.3776 22.9096 13.1962C23.3373 13.0148 23.7972 12.9237 24.2891 12.9229H29.4223C30.4917 12.9229 31.4007 13.2971 32.1493 14.0457C32.8978 14.7943 33.2721 15.7033 33.2721 16.7727V20.3659C33.6571 20.7295 33.9672 21.1466 34.2025 21.6171C34.4378 22.0877 34.5554 22.6117 34.5554 23.1892V30.8889H31.9888V28.3223H11.4562V30.8889H8.88965ZM23.0058 19.3393H30.7056V16.7727C30.7056 16.4091 30.5824 16.1041 30.336 15.8577C30.0896 15.6113 29.785 15.4886 29.4223 15.4894H24.2891C23.9255 15.4894 23.6205 15.6126 23.3741 15.859C23.1277 16.1054 23.005 16.41 23.0058 16.7727V19.3393ZM12.7395 19.3393H20.4392V16.7727C20.4392 16.4091 20.3161 16.1041 20.0697 15.8577C19.8233 15.6113 19.5187 15.4886 19.156 15.4894H14.0228C13.6592 15.4894 13.3542 15.6126 13.1078 15.859C12.8614 16.1054 12.7387 16.41 12.7395 16.7727V19.3393Z" fill="white"/>
</svg>
