<svg width="44" height="44" viewBox="0 0 44 44" fill="none" xmlns="http://www.w3.org/2000/svg">
<circle cx="21.5934" cy="21.8786" r="21.5592" fill="#3B87DA"/>
<path d="M12.4184 19.4598C11.9768 19.4598 11.5533 19.2844 11.2411 18.9721C10.9288 18.6599 10.7534 18.2364 10.7534 17.7949C10.7534 17.3533 10.9288 16.9298 11.2411 16.6176C11.5533 16.3053 11.9768 16.1299 12.4184 16.1299C12.8599 16.1299 13.2834 16.3053 13.5956 16.6176C13.9079 16.9298 14.0833 17.3533 14.0833 17.7949C14.0833 18.2364 13.9079 18.6599 13.5956 18.9721C13.2834 19.2844 12.8599 19.4598 12.4184 19.4598ZM11.8762 14.505C12.4719 14.4078 13.0827 14.4729 13.6445 14.6935C13.8707 14.3389 14.1826 14.047 14.5515 13.845C14.9204 13.6429 15.3343 13.5371 15.7549 13.5374H27.4328C28.0965 13.5374 28.733 13.8011 29.2023 14.2704C29.6716 14.7396 29.9352 15.3761 29.9352 16.0398V27.7178C29.9352 28.3814 29.6716 29.0179 29.2023 29.4872C28.733 29.9565 28.0965 30.2202 27.4328 30.2202H15.7549C15.0912 30.2202 14.4547 29.9565 13.9854 29.4872C13.5161 29.0179 13.2525 28.3814 13.2525 27.7178V21.023C12.7054 21.1641 12.1314 21.1641 11.5842 21.023V27.7178C11.5842 28.8239 12.0236 29.8847 12.8058 30.6669C13.5879 31.449 14.6488 31.8884 15.7549 31.8884H27.4328C28.539 31.8884 29.5998 31.449 30.382 30.6669C31.1641 29.8847 31.6035 28.8239 31.6035 27.7178V16.0398C31.6035 14.9337 31.1641 13.8729 30.382 13.0907C29.5998 12.3086 28.539 11.8691 27.4328 11.8691H15.7549C14.9186 11.869 14.1016 12.1202 13.41 12.5903C12.7183 13.0603 12.1839 13.7274 11.8762 14.505ZM18.2573 18.5422C18.0361 18.5422 17.8239 18.6301 17.6675 18.7866C17.5111 18.943 17.4232 19.1552 17.4232 19.3764C17.4232 19.5976 17.5111 19.8098 17.6675 19.9662C17.8239 20.1226 18.0361 20.2105 18.2573 20.2105H24.9304C25.1516 20.2105 25.3638 20.1226 25.5202 19.9662C25.6767 19.8098 25.7646 19.5976 25.7646 19.3764C25.7646 19.1552 25.6767 18.943 25.5202 18.7866C25.3638 18.6301 25.1516 18.5422 24.9304 18.5422H18.2573ZM18.2573 23.5471C18.0361 23.5471 17.8239 23.6349 17.6675 23.7914C17.5111 23.9478 17.4232 24.16 17.4232 24.3812C17.4232 24.6024 17.5111 24.8146 17.6675 24.971C17.8239 25.1275 18.0361 25.2153 18.2573 25.2153H22.6182C22.8394 25.2153 23.0516 25.1275 23.208 24.971C23.3644 24.8146 23.4523 24.6024 23.4523 24.3812C23.4523 24.16 23.3644 23.9478 23.208 23.7914C23.0516 23.6349 22.8394 23.5471 22.6182 23.5471H18.2573Z" fill="white"/>
</svg>
