<svg width="52" height="52" viewBox="0 0 52 52" fill="none" xmlns="http://www.w3.org/2000/svg">
<g filter="url(#filter0_d_356_1126)">
<circle cx="25.8259" cy="23.905" r="21.5592" fill="#2A4476"/>
</g>
<path d="M19.6659 11.5859L17.6126 13.6392L19.6659 15.6925L21.7191 13.6392L19.6659 11.5859ZM21.7191 13.6392L23.7724 15.6925L25.8257 13.6392L23.7724 11.5859L21.7191 13.6392ZM25.8257 13.6392L27.8789 15.6925L29.9322 13.6392L27.8789 11.5859L25.8257 13.6392ZM29.9322 13.6392L31.9854 15.6925L34.0387 13.6392L31.9854 11.5859L29.9322 13.6392ZM31.9854 15.6925H14.5327V36.2251H37.1186V15.6925H31.9854ZM16.586 17.7457H35.0653V34.1718H28.9055V29.0387H22.7458V34.1718H16.586V17.7457ZM18.6392 19.799V21.8522H20.6925V19.799H18.6392ZM22.7458 19.799V21.8522H24.799V19.799H22.7458ZM26.8523 19.799V21.8522H28.9055V19.799H26.8523ZM30.9588 19.799V21.8522H33.0121V19.799H30.9588ZM18.6392 22.8789V24.9321H20.6925V22.8789H18.6392ZM22.7458 22.8789V24.9321H24.799V22.8789H22.7458ZM26.8523 22.8789V24.9321H28.9055V22.8789H26.8523ZM30.9588 22.8789V24.9321H33.0121V22.8789H30.9588ZM18.6392 25.9588V28.012H20.6925V25.9588H18.6392ZM22.7458 25.9588V28.012H24.799V25.9588H22.7458ZM26.8523 25.9588V28.012H28.9055V25.9588H26.8523ZM30.9588 25.9588V28.012H33.0121V25.9588H30.9588ZM18.6392 29.0387V31.0919H20.6925V29.0387H18.6392ZM30.9588 29.0387V31.0919H33.0121V29.0387H30.9588ZM24.799 31.0919H26.8523V34.1718H24.799V31.0919Z" fill="white"/>
<defs>
<filter id="filter0_d_356_1126" x="0.160078" y="0.292441" width="51.3317" height="51.3312" filterUnits="userSpaceOnUse" color-interpolation-filters="sRGB">
<feFlood flood-opacity="0" result="BackgroundImageFix"/>
<feColorMatrix in="SourceAlpha" type="matrix" values="0 0 0 0 0 0 0 0 0 0 0 0 0 0 0 0 0 0 127 0" result="hardAlpha"/>
<feOffset dy="2.05326"/>
<feGaussianBlur stdDeviation="2.05326"/>
<feComposite in2="hardAlpha" operator="out"/>
<feColorMatrix type="matrix" values="0 0 0 0 0 0 0 0 0 0 0 0 0 0 0 0 0 0 0.25 0"/>
<feBlend mode="normal" in2="BackgroundImageFix" result="effect1_dropShadow_356_1126"/>
<feBlend mode="normal" in="SourceGraphic" in2="effect1_dropShadow_356_1126" result="shape"/>
</filter>
</defs>
</svg>
